<svg xmlns="http://www.w3.org/2000/svg" viewBox="33.8836 85.9138 440.3855 320.2803" height="100%" width="250" preserveAspectRatio="none"><g transform="matrix(1, 0, 0, 1, 10.3121919631958, -2.2355709075927734)" id="object-0"><g fill="#ffffff" transform="matrix(0.500438, 0, 0, 0.500438, -168.596771, 38.105583)" style=""><path d="M624 700 l0 -40 -40 0 -40 0 0 -80 0 -80 -40 0 -40 0 0 80 0 80 -40 0 -40 0 0 -120 0 -120 40 0 40 0 0 -40 0 -40 40 0 40 0 0 -40 0 -40 40 0 40 0 0 -39.4 c0 -37.9 -0.1 -39.5 -1.9 -40.1 -1 -0.3 -2.3 -0.5 -2.7 -0.4 -0.5 0.1 -17.7 0.1 -38.1 0 l-37.3 -0.1 0 -40 0 -40 40 0 40 0 0 38.9 c0 32.5 0.2 39 1.4 40 0.9 0.7 4.3 1.2 8.3 1.1 3.7 -0.1 21.1 -0.1 38.6 -0.1 l31.7 0.1 0 40 0 40 120 0 120 0 0 -40 0 -40 31.8 -0.1 c17.4 0 34.8 0 38.5 0.1 4 0.1 7.4 -0.4 8.3 -1.1 1.2 -1 1.4 -7.5 1.4 -40 l0 -38.9 40 0 40 0 0 40 0 40 -37.2 0.1 c-20.5 0.1 -37.7 0.1 -38.2 0 -0.4 -0.1 -1.7 0.1 -2.7 0.4 -1.8 0.6 -1.9 2.2 -1.9 40.1 l0 39.4 40 0 40 0 0 40 0 40 40 0 40 0 0 40 0 40 40 0 40 0 0 120 0 120 -40 0 -40 0 0 -80 0 -80 -40 0 -40 0 0 80 0 80 -40 0 -40 0 0 40 0 40 -80 0 -80 0 0 -40 0 -40 80 0 80 0 0 -40 0 -40 -200 0 -200 0 0 40 0 40 80 0 80 0 0 40 0 40 -80 0 -80 0 0 -40z m400 -320 l0 -40 -40 0 -40 0 0 40 0 40 40 0 40 0 0 -40z m-323 0 l0 -37 -37 0 -37 0 0 37 0 37 37 0 37 0 0 -37z"></path></g><g fill="#e00509" transform="matrix(0.500438, 0, 0, 0.500438, -168.596771, 38.105583)" style=""><path d="M624 380 l0 -40 40 0 40 0 0 40 0 40 -40 0 -40 0 0 -40z"></path><path d="M 944.008 379.978 L 944.008 339.978 L 984.008 339.978 L 1024.008 339.978 L 1024.008 379.978 L 1024.008 419.978 L 984.008 419.978 L 944.008 419.978 L 944.008 379.978 Z" style="fill: rgb(0, 0, 0);"></path></g></g></svg>
